<svg xmlns:dc="http://purl.org/dc/elements/1.1/" xmlns:cc="http://creativecommons.org/ns#" xmlns:rdf="http://www.w3.org/1999/02/22-rdf-syntax-ns#" xmlns:svg="http://www.w3.org/2000/svg" xmlns="http://www.w3.org/2000/svg" xmlns:sodipodi="http://sodipodi.sourceforge.net/DTD/sodipodi-0.dtd" xmlns:inkscape="http://www.inkscape.org/namespaces/inkscape" viewBox="0 0 100 125" version="1.1" x="0px" y="0px"><g transform="translate(0,-952.3622)"><path style="color:#000000;font-style:normal;font-variant:normal;font-weight:normal;font-stretch:normal;font-size:medium;line-height:normal;font-family:sans-serif;text-indent:0;text-align:start;text-decoration:none;text-decoration-line:none;text-decoration-style:solid;text-decoration-color:#000000;letter-spacing:normal;word-spacing:normal;text-transform:none;direction:ltr;block-progression:tb;writing-mode:lr-tb;baseline-shift:baseline;text-anchor:start;white-space:normal;clip-rule:nonzero;display:inline;overflow:visible;visibility:visible;opacity:1;isolation:auto;mix-blend-mode:normal;color-interpolation:sRGB;color-interpolation-filters:linearRGB;solid-color:#000000;solid-opacity:1;fill:#000000;fill-opacity:1;fill-rule:nonzero;stroke:none;stroke-width:1.5;stroke-linecap:round;stroke-linejoin:round;stroke-miterlimit:4;stroke-dasharray:none;stroke-dashoffset:0;stroke-opacity:1;color-rendering:auto;image-rendering:auto;shape-rendering:auto;text-rendering:auto;enable-background:accumulate" d="m 70.908203,1001.5391 c -11.639343,0 -21.089841,9.4532 -21.089844,21.0937 3e-6,11.6405 9.450501,21.0938 21.089844,21.0938 11.639343,0 21.091794,-9.4533 21.091797,-21.0938 -3e-6,-11.6405 -9.452454,-21.0937 -21.091797,-21.0937 z m 0,1.5 c 10.828595,0 19.591794,8.7638 19.591797,19.5937 -3e-6,10.8299 -8.763202,19.5938 -19.591797,19.5938 -10.828595,0 -19.589841,-8.7639 -19.589844,-19.5938 3e-6,-10.8299 8.761249,-19.5937 19.589844,-19.5937 z"/><path style="color:#000000;font-style:normal;font-variant:normal;font-weight:normal;font-stretch:normal;font-size:medium;line-height:normal;font-family:sans-serif;text-indent:0;text-align:start;text-decoration:none;text-decoration-line:none;text-decoration-style:solid;text-decoration-color:#000000;letter-spacing:normal;word-spacing:normal;text-transform:none;direction:ltr;block-progression:tb;writing-mode:lr-tb;baseline-shift:baseline;text-anchor:start;white-space:normal;clip-rule:nonzero;display:inline;overflow:visible;visibility:visible;opacity:1;isolation:auto;mix-blend-mode:normal;color-interpolation:sRGB;color-interpolation-filters:linearRGB;solid-color:#000000;solid-opacity:1;fill:#000000;fill-opacity:1;fill-rule:nonzero;stroke:none;stroke-width:1.5;stroke-linecap:round;stroke-linejoin:round;stroke-miterlimit:4;stroke-dasharray:none;stroke-dashoffset:0;stroke-opacity:1;color-rendering:auto;image-rendering:auto;shape-rendering:auto;text-rendering:auto;enable-background:accumulate" d="m 40.679688,961.00586 c -8.779421,-0.18717 -17.512648,3.23946 -23.884766,9.94726 -10.1953952,10.7325 -11.6931692,27.07085 -3.619141,39.47848 8.074014,12.4077 23.617852,17.6547 37.558594,12.6778 a 0.750075,0.750075 0 1 0 -0.503906,-1.4121 c -13.294275,4.7461 -28.097204,-0.2516 -35.796875,-12.084 -7.6996853,-11.83243 -6.273452,-27.3921 3.449218,-37.62697 9.722664,-10.23487 25.186787,-12.45582 37.396485,-5.3711 12.209679,7.08472 17.957359,21.61348 13.898437,35.13477 a 0.75044733,0.75044733 0 0 0 1.4375,0.4316 c 4.256244,-14.17858 -1.778653,-29.43598 -14.582031,-36.86519 -4.801274,-2.78596 -10.085863,-4.19825 -15.353515,-4.31055 z"/><path style="" d="m 32.666642,981.823 a 5.3081231,5.3086977 0 0 1 -5.308123,5.3087 5.3081231,5.3086977 0 0 1 -5.308124,-5.3087 5.3081231,5.3086977 0 0 1 5.308124,-5.3087 5.3081231,5.3086977 0 0 1 5.308123,5.3087 z" fill="#000000" stroke="none"/><path style="" d="m 57.918261,981.823 a 5.3081231,5.3086977 0 0 1 -5.308123,5.3087 5.3081231,5.3086977 0 0 1 -5.308123,-5.3087 5.3081231,5.3086977 0 0 1 5.308123,-5.3087 5.3081231,5.3086977 0 0 1 5.308123,5.3087 z" fill="#000000" stroke="none"/><path style="color:#000000;font-style:normal;font-variant:normal;font-weight:normal;font-stretch:normal;font-size:medium;line-height:normal;font-family:sans-serif;text-indent:0;text-align:start;text-decoration:none;text-decoration-line:none;text-decoration-style:solid;text-decoration-color:#000000;letter-spacing:normal;word-spacing:normal;text-transform:none;direction:ltr;block-progression:tb;writing-mode:lr-tb;baseline-shift:baseline;text-anchor:start;white-space:normal;clip-rule:nonzero;display:inline;overflow:visible;visibility:visible;opacity:1;isolation:auto;mix-blend-mode:normal;color-interpolation:sRGB;color-interpolation-filters:linearRGB;solid-color:#000000;solid-opacity:1;fill:#000000;fill-opacity:1;fill-rule:nonzero;stroke:none;stroke-width:1.5;stroke-linecap:round;stroke-linejoin:round;stroke-miterlimit:4;stroke-dasharray:none;stroke-dashoffset:0;stroke-opacity:1;color-rendering:auto;image-rendering:auto;shape-rendering:auto;text-rendering:auto;enable-background:accumulate" d="m 22.503906,998.57227 a 0.750075,0.750075 0 0 0 -0.683594,1.09375 c 3.402626,6.82848 10.377136,11.14788 18.00586,11.15038 7.628724,0 14.606637,-4.3124 18.013672,-11.13867 a 0.750075,0.750075 0 1 0 -1.341797,-0.66992 c -3.154509,6.32039 -9.608726,10.31089 -16.671875,10.30859 -7.063149,-0 -13.513636,-3.996 -16.664063,-10.31835 a 0.750075,0.750075 0 0 0 -0.658203,-0.42578 z"/><path style="color:#000000;font-style:normal;font-variant:normal;font-weight:normal;font-stretch:normal;font-size:medium;line-height:normal;font-family:sans-serif;text-indent:0;text-align:start;text-decoration:none;text-decoration-line:none;text-decoration-style:solid;text-decoration-color:#000000;letter-spacing:normal;word-spacing:normal;text-transform:none;direction:ltr;block-progression:tb;writing-mode:lr-tb;baseline-shift:baseline;text-anchor:start;white-space:normal;clip-rule:nonzero;display:inline;overflow:visible;visibility:visible;opacity:1;isolation:auto;mix-blend-mode:normal;color-interpolation:sRGB;color-interpolation-filters:linearRGB;solid-color:#000000;solid-opacity:1;fill:#000000;fill-opacity:1;fill-rule:nonzero;stroke:none;stroke-width:1.5;stroke-linecap:round;stroke-linejoin:round;stroke-miterlimit:4;stroke-dasharray:none;stroke-dashoffset:0;stroke-opacity:1;color-rendering:auto;image-rendering:auto;shape-rendering:auto;text-rendering:auto;enable-background:accumulate" d="m 63.027344,1011.5117 a 0.750075,0.750075 0 0 0 -0.722656,0.7481 l 0,20.7461 a 0.750075,0.750075 0 0 0 1.085937,0.6699 l 20.742187,-10.3731 a 0.750075,0.750075 0 0 0 0,-1.3398 l -20.742187,-10.3731 a 0.750075,0.750075 0 0 0 -0.363281,-0.078 z m 0.777344,1.9629 18.316406,9.1582 -18.316406,9.1582 0,-18.3164 z"/></g><text x="0" y="115" fill="#000000" font-size="5px" font-weight="bold" font-family="'Helvetica Neue', Helvetica, Arial-Unicode, Arial, Sans-serif">Created by anbileru adaleru</text><text x="0" y="120" fill="#000000" font-size="5px" font-weight="bold" font-family="'Helvetica Neue', Helvetica, Arial-Unicode, Arial, Sans-serif">from the Noun Project</text></svg>